<?xml version="1.0" standalone="no"?>
<!DOCTYPE svg PUBLIC "-//W3C//DTD SVG 20010904//EN"
 "http://www.w3.org/TR/2001/REC-SVG-20010904/DTD/svg10.dtd">
<svg version="1.0" xmlns="http://www.w3.org/2000/svg"
 width="622.000000pt" height="622.000000pt" viewBox="0 0 622.000000 622.000000"
 preserveAspectRatio="xMidYMid meet">
<metadata>
Created by potrace 1.11, written by Peter Selinger 2001-2013
</metadata>
<g transform="translate(0.000000,622.000000) scale(0.100000,-0.100000)"
fill="#000000" stroke="none">
<path d="M3345 4018 c-109 -255 -217 -509 -241 -566 l-43 -103 131 3 130 3 20
50 c11 28 33 83 50 123 l30 72 233 0 233 0 49 -122 49 -123 132 -3 c73 -1 132
1 131 5 0 4 -107 258 -237 563 l-237 555 -117 3 -116 3 -197 -463z m385 -33
l68 -165 -144 0 -144 0 13 33 c8 17 40 97 72 176 33 79 61 139 63 133 2 -7 34
-86 72 -177z"/>
<path d="M169 4423 c10 -27 112 -281 226 -565 l207 -518 113 0 112 0 223 553
c122 303 224 558 227 565 4 10 -24 12 -133 10 l-137 -3 -141 -377 c-78 -207
-143 -379 -146 -382 -3 -3 -57 133 -119 302 -63 169 -127 342 -143 385 l-30
77 -139 0 -139 0 19 -47z"/>
<path d="M1460 3910 l0 -560 125 0 125 0 0 560 0 560 -125 0 -125 0 0 -560z"/>
<path d="M1989 4463 c-1 -5 -2 -257 -3 -561 l-1 -554 300 4 300 3 80 33 c228
92 356 281 356 527 -1 211 -110 392 -294 484 -123 62 -180 71 -479 71 -142 0
-259 -3 -259 -7z m549 -238 c147 -44 238 -195 218 -363 -13 -110 -83 -213
-172 -253 -52 -23 -154 -39 -261 -39 l-83 0 0 335 0 335 123 0 c81 0 141 -5
175 -15z"/>
<path d="M20 3165 l0 -75 3070 0 3070 0 0 75 0 75 -3070 0 -3070 0 0 -75z"/>
<path d="M493 2916 c-153 -37 -308 -164 -376 -306 -42 -90 -57 -156 -57 -255
0 -165 52 -290 169 -405 123 -122 238 -170 406 -170 169 0 284 48 405 170 122
121 170 236 170 405 0 168 -48 283 -170 406 -82 83 -177 137 -278 158 -69 14
-203 13 -269 -3z m214 -221 c0 -8 -4 -12 -9 -9 -5 3 -6 10 -3 15 9 13 12 11
12 -6z m139 -81 c1 -9 0 -13 -4 -10 -3 4 -7 14 -8 22 -1 9 0 13 4 10 3 -4 7
-14 8 -22z m-253 -129 c-3 -9 -8 -14 -10 -11 -3 3 -2 9 2 15 9 16 15 13 8 -4z
m-145 -310 c-3 -3 -9 2 -12 12 -6 14 -5 15 5 6 7 -7 10 -15 7 -18z m212 -51
c0 -8 -19 -13 -24 -6 -3 5 1 9 9 9 8 0 15 -2 15 -3z m74 -95 c-3 -5 -10 -7
-15 -3 -5 3 -7 10 -3 15 3 5 10 7 15 3 5 -3 7 -10 3 -15z m-173 -6 c13 -16 12
-17 -3 -4 -10 7 -18 15 -18 17 0 8 8 3 21 -13z"/>
<path d="M2815 2920 c-449 -90 -623 -654 -301 -976 125 -125 280 -182 465
-171 54 3 125 15 163 26 82 26 203 105 258 169 51 60 105 163 125 238 19 75
19 213 0 289 -53 206 -220 371 -426 420 -68 16 -217 18 -284 5z m268 -253
c139 -64 216 -218 189 -377 -15 -86 -40 -138 -92 -190 -158 -158 -436 -112
-530 88 -80 168 -26 375 118 459 100 59 215 66 315 20z"/>
<path d="M4140 2914 c-205 -54 -362 -212 -415 -419 -19 -76 -19 -214 0 -290
36 -141 140 -286 252 -352 173 -101 410 -110 590 -21 61 30 173 119 173 138 0
4 -33 43 -74 86 -73 78 -74 78 -97 61 -133 -96 -210 -124 -309 -113 -191 22
-319 209 -281 412 7 37 21 84 32 106 69 136 218 202 367 164 58 -15 161 -70
176 -95 15 -23 36 -8 110 78 l76 89 -42 37 c-109 93 -236 135 -402 134 -56 0
-126 -7 -156 -15z"/>
<path d="M5307 2888 c-8 -18 -110 -258 -227 -533 -117 -275 -219 -515 -227
-532 l-13 -33 129 0 129 0 50 123 51 122 234 3 234 2 51 -122 50 -123 132 -3
c123 -2 132 -1 126 15 -4 10 -111 264 -239 565 l-232 548 -117 0 -118 0 -13
-32z m201 -455 l71 -173 -144 0 -145 0 20 51 c49 123 123 299 125 297 2 -2 35
-81 73 -175z"/>
<path d="M1469 2903 c-1 -5 -2 -257 -3 -561 l-1 -552 408 0 407 0 0 115 0 115
-280 0 -280 0 0 445 0 445 -125 0 c-69 0 -125 -3 -126 -7z"/>
</g>
</svg>
